<svg width="25" height="25" viewBox="0 0 25 25" fill="none" xmlns="http://www.w3.org/2000/svg">
<g clip-path="url(#clip0_2_156)">
<path fill-rule="evenodd" clip-rule="evenodd" d="M12.7552 6.95996C12.7118 6.91937 12.6681 6.87831 12.624 6.83692C11.7024 5.97191 10.6244 4.95996 8.74999 4.95996C4.82153 4.95996 1.93146 9.95996 5.0971 13.96C8.26275 17.96 11.7526 20.46 12.7552 20.96C13.7467 20.46 17.2366 17.96 20.4029 13.96C23.5691 9.95996 20.6776 4.95996 16.75 4.95996C14.8503 4.95996 13.7615 5.99945 12.8475 6.87192C12.8166 6.90147 12.7858 6.93084 12.7552 6.95996ZM12.7529 19.5661C14.0406 18.7214 16.8513 16.5134 19.462 13.2152C22.036 9.96333 19.6254 6.15996 16.75 6.15996C15.3351 6.15996 14.5603 6.89791 13.6101 7.80293L12.7631 8.60954L11.936 7.83683C11.9107 7.81314 11.8855 7.78956 11.8604 7.76611C10.9043 6.87203 10.1429 6.15996 8.74999 6.15996C5.87411 6.15996 3.46425 9.96306 6.03808 13.2153C8.65081 16.5167 11.4627 18.7239 12.7529 19.5661Z" fill="#332E69"/>
</g>
<defs>
<clipPath id="clip0_2_156">
<rect width="24" height="24" fill="white" transform="translate(0.75 0.959961)"/>
</clipPath>
</defs>
</svg>
