<svg width="25" height="25" viewBox="0 0 25 25" fill="none" xmlns="http://www.w3.org/2000/svg">
<g clip-path="url(#clip0_2_77)">
<path fill-rule="evenodd" clip-rule="evenodd" d="M12.5052 6.89001C12.4618 6.84942 12.4181 6.80836 12.374 6.76697C11.4524 5.90196 10.3744 4.89001 8.49999 4.89001C4.57153 4.89001 1.68146 9.89001 4.8471 13.89C8.01275 17.89 11.5026 20.39 12.5052 20.89C13.4967 20.39 16.9866 17.89 20.1529 13.89C23.3191 9.89001 20.4276 4.89001 16.5 4.89001C14.6003 4.89001 13.5115 5.9295 12.5975 6.80197C12.5666 6.83152 12.5358 6.86089 12.5052 6.89001ZM12.5029 19.4961C13.7906 18.6514 16.6013 16.4434 19.212 13.1452C21.786 9.89338 19.3754 6.09001 16.5 6.09001C15.0851 6.09001 14.3103 6.82796 13.3601 7.73298L12.5131 8.53959L11.686 7.76688C11.6607 7.74319 11.6355 7.71961 11.6104 7.69616C10.6543 6.80208 9.89288 6.09001 8.49999 6.09001C5.62411 6.09001 3.21425 9.89311 5.78808 13.1453C8.40081 16.4467 11.2127 18.6539 12.5029 19.4961Z" fill="#332E69"/>
</g>
<defs>
<clipPath id="clip0_2_77">
<rect width="24" height="24" fill="white" transform="translate(0.5 0.890015)"/>
</clipPath>
</defs>
</svg>
