<svg width="80" height="80" viewBox="0 0 80 80" fill="none" xmlns="http://www.w3.org/2000/svg">
<g clip-path="url(#clip0_2_513)">
<path fill-rule="evenodd" clip-rule="evenodd" d="M77.0726 19.7281L76.5046 19.3601L72.0006 26.4001L67.6006 23.5921L72.0726 16.5521L71.4966 16.1841L66.5766 17.2801L64.0166 21.2801L63.2166 22.5201L63.0006 22.8721L63.9046 26.9521L64.5686 27.3761L51.8486 47.3761L57.1286 50.7281L69.8486 30.7281L70.5126 31.1521L74.5926 30.2401L74.8086 29.8881L75.6086 28.6481L78.1686 24.6481L77.0726 19.7281Z" fill="#FE0B53"/>
<path fill-rule="evenodd" clip-rule="evenodd" d="M21.1364 27.2C20.8272 27.2637 20.5376 27.3999 20.2914 27.5974C20.0453 27.7949 19.8495 28.0481 19.7204 28.336C19.3284 30.616 19.9924 32.792 18.9204 34.856L7.52038 38.4C6.24838 38.84 6.10438 39.344 5.68038 40.528C5.68038 40.528 1.51238 67.624 1.84838 68.4C2.41016 69.4096 3.21605 70.2623 4.19238 70.88C4.89638 71.216 30.7764 70.88 30.7764 70.88C32.2004 70.408 32.6324 69.768 33.3284 68.536L33.4724 47.192C33.4724 47.192 28.9044 28.8 28.7204 28.296C28.6192 28.0327 28.4581 27.7966 28.2498 27.6063C28.0415 27.4161 27.7918 27.277 27.5204 27.2C27.0484 27.152 21.6564 27.2 21.1364 27.2Z" fill="#FF617F"/>
<path fill-rule="evenodd" clip-rule="evenodd" d="M15.6242 13.7761L14.9602 17.9041C14.8802 19.3041 12.3682 22.3441 12.2322 23.0801C12.0962 23.8161 12.6962 24.1841 13.4242 23.9441C15.6619 22.1704 17.7053 20.1645 19.5202 17.9601L19.9042 17.4561C18.9104 15.8011 17.4095 14.5106 15.6242 13.7761Z" fill="#352C6D"/>
<path d="M27.7047 9.01611H13.7607V15.6481C15.0967 16.0961 16.4647 16.5521 17.5447 16.8881C20.7447 17.8641 20.9527 23.3281 20.9527 23.3281H27.4567V20.0721H33.2407L33.7367 19.4321L27.7047 9.01611Z" fill="#6F66B0"/>
<path d="M8.63281 9.01611V13.8641C8.63281 13.8641 11.1448 14.7601 13.7608 15.6481V9.01611H8.63281Z" fill="#352C6D"/>
<path d="M20.5441 23.3281H27.9361C28.2331 23.3281 28.518 23.4461 28.728 23.6562C28.9381 23.8662 29.0561 24.1511 29.0561 24.4481V28.4481H19.4561V24.4481C19.4559 24.1565 19.5695 23.8764 19.7727 23.6673C19.9759 23.4581 20.2526 23.3365 20.5441 23.3281Z" fill="#352C6D"/>
<path d="M6.01651 43.7921C6.01651 43.7921 3.03251 65.928 2.81651 66.992C2.60051 68.056 3.75251 69.5121 4.59251 69.8881C5.43251 70.264 26.8245 70.264 28.3205 70.168C29.5357 70.0661 30.731 69.7969 31.8725 69.368C32.3365 69.176 32.7125 68.1521 32.7125 67.4961C32.7125 66.8401 30.2165 56.9601 24.5205 53.3201C18.8245 49.68 11.8085 46.032 10.9685 43.2C10.1285 40.368 6.56051 39.7681 6.01651 43.7921Z" fill="#FE0B53"/>
<path fill-rule="evenodd" clip-rule="evenodd" d="M70.4889 70.9842H37.3369C36.9521 70.9842 36.583 70.8319 36.3101 70.5606C36.0373 70.2892 35.883 69.9209 35.8809 69.5362V42.3362C35.8801 41.624 36.0979 40.9287 36.5049 40.3442L50.1609 24.9202C50.5814 24.3145 51.1424 23.8197 51.7958 23.478C52.4491 23.1363 53.1755 22.9578 53.9129 22.9578C54.6502 22.9578 55.3766 23.1363 56.03 23.478C56.6833 23.8197 57.2443 24.3145 57.6649 24.9202L71.3209 40.3202C71.7278 40.9047 71.9456 41.6 71.9449 42.3122V69.5122C71.9481 69.705 71.9127 69.8965 71.8409 70.0755C71.769 70.2545 71.6622 70.4174 71.5265 70.5545C71.3909 70.6916 71.2293 70.8002 71.0511 70.874C70.8729 70.9478 70.6817 70.9853 70.4889 70.9842Z" fill="#6F66B0"/>
<path d="M53.9121 22.9522C54.6506 22.9494 55.3785 23.1273 56.0325 23.4703C56.6864 23.8133 57.2466 24.3111 57.6641 24.9202L71.3201 40.3202C71.727 40.9047 71.9448 41.6 71.9441 42.3122V69.5122C71.9441 69.703 71.9064 69.892 71.8331 70.0682C71.7598 70.2444 71.6525 70.4044 71.5172 70.5389C71.3819 70.6735 71.2213 70.78 71.0447 70.8523C70.8681 70.9246 70.6789 70.9613 70.4881 70.9602H37.3361C36.9513 70.9602 36.5822 70.8079 36.3094 70.5366C36.0365 70.2653 35.8822 69.897 35.8801 69.5122V42.3122C35.8794 41.6 36.0972 40.9047 36.5041 40.3202L50.1601 24.9202C50.5781 24.3116 51.1383 23.8142 51.7922 23.4712C52.4461 23.1283 53.1738 22.9501 53.9121 22.9522ZM53.9121 21.7522C52.9948 21.7494 52.0901 21.9658 51.2733 22.3832C50.4565 22.8007 49.7512 23.4072 49.2161 24.1522L35.6161 39.5042L35.5681 39.5522L35.5281 39.6162C34.9928 40.4033 34.7134 41.3364 34.7281 42.2882V69.4882C34.7302 70.1912 35.011 70.8648 35.5088 71.3611C36.0067 71.8575 36.6811 72.1362 37.3841 72.1362H70.4881C71.1911 72.1362 71.8655 71.8575 72.3633 71.3611C72.8612 70.8648 73.142 70.1912 73.1441 69.4882V42.2882C73.1471 41.3321 72.8536 40.3986 72.3041 39.6162V39.5522L72.2561 39.5042L58.6561 24.1522C58.121 23.4072 57.4157 22.8007 56.5989 22.3832C55.7821 21.9658 54.8774 21.7494 53.9601 21.7522H53.9121Z" fill="#F8FBFE"/>
<path d="M53.9122 29.2802C55.2023 29.2802 56.2482 28.2343 56.2482 26.9442C56.2482 25.654 55.2023 24.6082 53.9122 24.6082C52.622 24.6082 51.5762 25.654 51.5762 26.9442C51.5762 28.2343 52.622 29.2802 53.9122 29.2802Z" fill="#FE0B53"/>
<path fill-rule="evenodd" clip-rule="evenodd" d="M39.1127 67.9522L52.8647 57.9042C53.1689 57.6818 53.5359 57.562 53.9127 57.562C54.2895 57.562 54.6565 57.6818 54.9607 57.9042L68.6887 67.9522C68.7631 68.0143 68.817 68.0975 68.8432 68.1908C68.8694 68.2841 68.8667 68.3832 68.8355 68.4749C68.8044 68.5667 68.7462 68.6469 68.6686 68.705C68.5909 68.763 68.4976 68.7962 68.4007 68.8002H39.4007C39.3039 68.7962 39.2105 68.763 39.1329 68.705C39.0553 68.6469 38.9971 68.5667 38.9659 68.4749C38.9348 68.3832 38.9321 68.2841 38.9583 68.1908C38.9845 68.0975 39.0383 68.0143 39.1127 67.9522Z" fill="#352C6D"/>
<path fill-rule="evenodd" clip-rule="evenodd" d="M68.6884 43.4322L54.9284 53.4802C54.6254 53.7019 54.2597 53.8213 53.8844 53.8213C53.509 53.8213 53.1433 53.7019 52.8404 53.4802L39.1123 43.4322C39.0283 43.3729 38.9655 43.2881 38.9333 43.1904C38.9011 43.0927 38.9011 42.9872 38.9334 42.8895C38.9657 42.7918 39.0285 42.7071 39.1125 42.6478C39.1966 42.5885 39.2975 42.5578 39.4004 42.5602H68.4004C68.5032 42.5578 68.6041 42.5885 68.6882 42.6478C68.7722 42.7071 68.835 42.7918 68.8673 42.8895C68.8996 42.9872 68.8996 43.0927 68.8674 43.1904C68.8352 43.2881 68.7724 43.3729 68.6884 43.4322Z" fill="#352C6D"/>
<path fill-rule="evenodd" clip-rule="evenodd" d="M68.3043 65.944L55.2003 56.296C55.056 56.2346 54.933 56.132 54.8465 56.0012C54.76 55.8703 54.7139 55.7169 54.7139 55.56C54.7139 55.4032 54.76 55.2498 54.8465 55.1189C54.933 54.9881 55.056 54.8855 55.2003 54.824L68.3203 45.224C68.6803 44.96 69.4563 45.096 69.4563 45.424V65.744C69.4403 66.064 68.6643 66.208 68.3043 65.944Z" fill="#352C6D"/>
<path fill-rule="evenodd" clip-rule="evenodd" d="M39.3362 45.2001L52.4642 54.8481C52.6062 54.9107 52.7269 55.0132 52.8116 55.1432C52.8963 55.2732 52.9414 55.425 52.9414 55.5801C52.9414 55.7353 52.8963 55.8871 52.8116 56.017C52.7269 56.147 52.6062 56.2495 52.4642 56.3121L39.3362 65.9121C38.9762 66.1761 38.2002 66.0321 38.2002 65.7121V45.4001C38.2002 45.0721 38.9842 44.9361 39.3362 45.2001Z" fill="#352C6D"/>
</g>
<defs>
<clipPath id="clip0_2_513">
<rect width="80" height="80" fill="white"/>
</clipPath>
</defs>
</svg>
