<svg width="80" height="80" viewBox="0 0 80 80" fill="none" xmlns="http://www.w3.org/2000/svg">
<g clip-path="url(#clip0_2_466)">
<path d="M18.928 13.3519V32.2079C18.928 44.1119 27.648 52.3919 40.472 58.2239V6.2959L21.064 10.6719C20.4567 10.8099 19.9143 11.1504 19.5262 11.6374C19.138 12.1245 18.927 12.7291 18.928 13.3519Z" fill="#6F66B0"/>
<path d="M59.8879 10.6719L40.4719 6.2959V58.2239C53.2719 52.3919 62.0239 44.1119 62.0239 32.2079V13.3519C62.0249 12.7291 61.8139 12.1245 61.4258 11.6374C61.0376 11.1504 60.4953 10.8099 59.8879 10.6719Z" fill="#6F66B0"/>
<path d="M34.84 36.0479C34.6811 36.0493 34.5234 36.0189 34.3764 35.9584C34.2294 35.898 34.096 35.8087 33.984 35.6959L28.856 30.5679C28.644 30.3405 28.5286 30.0396 28.5341 29.7287C28.5396 29.4178 28.6655 29.1212 28.8854 28.9013C29.1053 28.6815 29.4019 28.5555 29.7128 28.5501C30.0236 28.5446 30.3245 28.66 30.552 28.8719L34.84 33.1519L50.696 17.2959C50.9235 17.084 51.2244 16.9686 51.5352 16.9741C51.8461 16.9795 52.1427 17.1055 52.3626 17.3254C52.5825 17.5452 52.7084 17.8418 52.7139 18.1527C52.7194 18.4636 52.604 18.7645 52.392 18.9919L35.688 35.6959C35.5772 35.8081 35.4451 35.897 35.2995 35.9575C35.1539 36.0179 34.9977 36.0487 34.84 36.0479Z" fill="white"/>
<path d="M55.3518 52.432V52.208H57.3598C57.6905 52.208 58.0138 52.1099 58.2887 51.9262C58.5637 51.7425 58.778 51.4814 58.9045 51.1758C59.0311 50.8703 59.0642 50.5341 58.9997 50.2098C58.9352 49.8855 58.7759 49.5875 58.5421 49.3537C58.3083 49.1199 58.0103 48.9606 57.686 48.8961C57.3617 48.8316 57.0255 48.8647 56.72 48.9913C56.4144 49.1178 56.1533 49.3321 55.9696 49.6071C55.7859 49.882 55.6878 50.2053 55.6878 50.536C55.6878 50.536 55.6878 50.608 55.6878 50.648H55.0398L54.3118 46.488C54.127 45.4235 53.5722 44.4585 52.7452 43.7632C51.9182 43.068 50.8722 42.6872 49.7918 42.688H30.2078C29.1274 42.6872 28.0814 43.068 27.2544 43.7632C26.4274 44.4585 25.8726 45.4235 25.6878 46.488L24.9598 50.648H24.2958C24.2997 50.6108 24.2997 50.5732 24.2958 50.536C24.2958 50.2053 24.1977 49.882 24.014 49.6071C23.8303 49.3321 23.5692 49.1178 23.2637 48.9913C22.9581 48.8647 22.622 48.8316 22.2976 48.8961C21.9733 48.9606 21.6754 49.1199 21.4415 49.3537C21.2077 49.5875 21.0484 49.8855 20.9839 50.2098C20.9194 50.5341 20.9525 50.8703 21.0791 51.1758C21.2056 51.4814 21.4199 51.7425 21.6949 51.9262C21.9699 52.1099 22.2931 52.208 22.6238 52.208H24.6718L24.6318 52.432C21.1678 53.416 17.7278 56.616 17.7278 59.944V64.56C17.7278 65.4384 18.0767 66.2808 18.6979 66.9019C19.319 67.523 20.1614 67.872 21.0398 67.872H21.0878V70.92C21.0878 71.4024 21.2789 71.8651 21.6192 72.2069C21.9595 72.5488 22.4214 72.7419 22.9038 72.744H25.8558C26.095 72.744 26.3318 72.6968 26.5526 72.605C26.7735 72.5132 26.974 72.3788 27.1427 72.2093C27.3115 72.0398 27.4451 71.8387 27.5359 71.6174C27.6267 71.3961 27.6729 71.1591 27.6718 70.92V67.872H52.3118V70.92C52.3107 71.1591 52.3569 71.3961 52.4477 71.6174C52.5385 71.8387 52.6721 72.0398 52.8409 72.2093C53.0096 72.3788 53.2101 72.5132 53.431 72.605C53.6518 72.6968 53.8887 72.744 54.1278 72.744H57.0798C57.5622 72.7419 58.0241 72.5488 58.3644 72.2069C58.7047 71.8651 58.8958 71.4024 58.8958 70.92V67.872H58.9438C59.8222 67.872 60.6646 67.523 61.2857 66.9019C61.9069 66.2808 62.2558 65.4384 62.2558 64.56V59.944C62.2558 56.616 58.8158 53.416 55.3518 52.432Z" fill="#FF617F"/>
<path d="M49.792 42.688C50.8724 42.6871 51.9184 43.068 52.7453 43.7632C53.5723 44.4585 54.1272 45.4235 54.3119 46.488L55.04 50.648H55.6559C55.6559 50.608 55.6559 50.576 55.6559 50.536C55.6559 50.2053 55.754 49.882 55.9377 49.6071C56.1215 49.3321 56.3826 49.1178 56.6881 48.9913C56.9936 48.8647 57.3298 48.8316 57.6541 48.8961C57.9785 48.9606 58.2764 49.1199 58.5102 49.3537C58.7441 49.5875 58.9033 49.8855 58.9678 50.2098C59.0323 50.5341 58.9992 50.8703 58.8727 51.1758C58.7461 51.4813 58.5318 51.7425 58.2569 51.9262C57.9819 52.1099 57.6586 52.208 57.328 52.208H55.3119V52.432C58.7759 53.416 62.2159 56.616 62.2159 59.944V64.56C62.2159 65.4384 61.867 66.2808 61.2459 66.9019C60.6248 67.523 59.7823 67.872 58.9039 67.872H58.8559V70.92C58.856 71.4024 58.6649 71.8651 58.3245 72.2069C57.9842 72.5488 57.5223 72.7419 57.04 72.744H54.128C53.8888 72.744 53.652 72.6968 53.4311 72.605C53.2103 72.5132 53.0097 72.3787 52.841 72.2093C52.6723 72.0398 52.5387 71.8386 52.4479 71.6174C52.3571 71.3961 52.3109 71.1591 52.3119 70.92V67.872H27.6879V70.92C27.689 71.1591 27.6428 71.3961 27.552 71.6174C27.4612 71.8386 27.3276 72.0398 27.1589 72.2093C26.9902 72.3787 26.7896 72.5132 26.5688 72.605C26.3479 72.6968 26.1111 72.744 25.8719 72.744H22.9199C22.4376 72.7419 21.9757 72.5488 21.6354 72.2069C21.295 71.8651 21.1039 71.4024 21.1039 70.92V67.872H21.0559C20.1775 67.872 19.3351 67.523 18.714 66.9019C18.0929 66.2808 17.7439 65.4384 17.7439 64.56V59.944C17.7439 56.616 21.1839 53.416 24.6479 52.432L24.6879 52.208H22.6399C22.3093 52.208 21.986 52.1099 21.711 51.9262C21.4361 51.7425 21.2218 51.4813 21.0952 51.1758C20.9687 50.8703 20.9356 50.5341 21.0001 50.2098C21.0646 49.8855 21.2238 49.5875 21.4577 49.3537C21.6915 49.1199 21.9894 48.9606 22.3138 48.8961C22.6381 48.8316 22.9743 48.8647 23.2798 48.9913C23.5853 49.1178 23.8464 49.3321 24.0302 49.6071C24.2139 49.882 24.3119 50.2053 24.3119 50.536C24.3158 50.5732 24.3158 50.6108 24.3119 50.648H24.9759L25.7039 46.488C25.8887 45.4235 26.4436 44.4585 27.2706 43.7632C28.0975 43.068 29.1435 42.6871 30.2239 42.688H49.792ZM49.792 41.488H30.2079C28.8438 41.487 27.5232 41.9681 26.4795 42.8464C25.4357 43.7248 24.736 44.9437 24.5039 46.288L24.1839 48.128C23.7232 47.8331 23.187 47.6775 22.6399 47.68C22.035 47.6827 21.4465 47.8763 20.9581 48.2333C20.4697 48.5902 20.1065 49.0923 19.9203 49.6678C19.7341 50.2433 19.7343 50.8629 19.921 51.4383C20.1077 52.0137 20.4713 52.5154 20.9599 52.872C18.4799 54.536 16.5439 57.12 16.5439 59.952V64.56C16.5441 65.5566 16.8736 66.5253 17.4813 67.3153C18.089 68.1052 18.9407 68.6722 19.9039 68.928V70.92C19.9039 71.7206 20.2214 72.4886 20.7868 73.0555C21.3522 73.6223 22.1193 73.9419 22.9199 73.944H25.8719C26.6726 73.9419 27.4397 73.6223 28.0051 73.0555C28.5704 72.4886 28.8879 71.7206 28.8879 70.92V69.072H51.1119V70.92C51.1119 71.7206 51.4294 72.4886 51.9948 73.0555C52.5602 73.6223 53.3273 73.9419 54.128 73.944H57.0799C57.8806 73.9419 58.6477 73.6223 59.2131 73.0555C59.7785 72.4886 60.096 71.7206 60.096 70.92V68.928C61.0592 68.6722 61.9109 68.1052 62.5186 67.3153C63.1263 66.5253 63.4558 65.5566 63.4559 64.56V59.944C63.4559 57.104 61.5039 54.512 59.0159 52.848C59.5871 52.4002 59.9676 51.7527 60.0808 51.0358C60.194 50.3189 60.0316 49.5857 59.6262 48.9836C59.2207 48.3816 58.6024 47.9554 57.8956 47.7907C57.1887 47.626 56.4457 47.7351 55.8159 48.096L55.5039 46.28C55.2719 44.9357 54.5722 43.7168 53.5284 42.8384C52.4847 41.9601 51.1641 41.479 49.7999 41.48L49.792 41.488Z" fill="#F8FBFE"/>
<path d="M55.5761 53.7278H24.4241L25.6881 46.5278C25.8728 45.4633 26.4277 44.4983 27.2547 43.803C28.0817 43.1078 29.1276 42.7269 30.208 42.7278H49.7921C50.8725 42.7269 51.9185 43.1078 52.7454 43.803C53.5724 44.4983 54.1273 45.4633 54.3121 46.5278L55.5761 53.7278Z" fill="#FF617F"/>
<path d="M25.6001 52.8L26.6721 46.688C26.8159 45.8467 27.2533 45.0837 27.9065 44.5344C28.5598 43.9852 29.3866 43.6853 30.2401 43.688H49.7921C50.6456 43.6853 51.4724 43.9852 52.1256 44.5344C52.7789 45.0837 53.2163 45.8467 53.3601 46.688L54.4001 52.8H25.6001Z" fill="#110A36"/>
<path d="M57.08 64.4719H54.128C53.125 64.4719 52.312 65.285 52.312 66.2879V70.9279C52.312 71.9309 53.125 72.7439 54.128 72.7439H57.08C58.0829 72.7439 58.896 71.9309 58.896 70.9279V66.2879C58.896 65.285 58.0829 64.4719 57.08 64.4719Z" fill="black"/>
<path d="M25.872 64.4719H22.92C21.9171 64.4719 21.104 65.285 21.104 66.2879V70.9279C21.104 71.9309 21.9171 72.7439 22.92 72.7439H25.872C26.875 72.7439 27.688 71.9309 27.688 70.9279V66.2879C27.688 65.285 26.875 64.4719 25.872 64.4719Z" fill="black"/>
<path d="M53.2719 52.1119L39.9999 51.8079L26.7279 52.1119C22.7279 52.1119 17.7439 55.9359 17.7439 59.9439V64.5599C17.7439 65.4383 18.0928 66.2807 18.714 66.9018C19.3351 67.5229 20.1775 67.8719 21.0559 67.8719H58.9439C59.8223 67.8719 60.6647 67.5229 61.2858 66.9018C61.907 66.2807 62.2559 65.4383 62.2559 64.5599V59.9439C62.2559 55.9359 57.2799 52.1119 53.2719 52.1119Z" fill="#FF617F"/>
<path d="M60.1601 56.8639C60.8574 57.7432 61.2554 58.8223 61.2961 59.9439V64.5599C61.2961 65.1836 61.0483 65.7819 60.6072 66.223C60.1661 66.6641 59.5679 66.9119 58.9441 66.9119H21.0561C20.4323 66.9119 19.8341 66.6641 19.393 66.223C18.9519 65.7819 18.7041 65.1836 18.7041 64.5599V59.9439C18.7341 59.0413 19.0108 58.1643 19.5041 57.4079C19.5041 57.4079 20.9601 56.0159 21.0161 57.9919C21.0721 59.9679 23.0241 62.3119 26.9041 60.6079C29.3519 59.4768 32.0339 58.9448 34.7281 59.0559C36.0081 59.0559 48.9121 59.0559 50.0321 59.1119C51.1521 59.1679 52.5921 60.6079 54.0881 61.0879C54.8828 61.3296 55.7356 61.2978 56.5101 60.9976C57.2845 60.6974 57.936 60.1461 58.3601 59.4319C59.0801 57.9359 58.8401 55.9439 60.1601 56.8639Z" fill="#FE0B53"/>
<path d="M24.5601 60.2718C25.9651 60.2718 27.1041 59.1328 27.1041 57.7278C27.1041 56.3228 25.9651 55.1838 24.5601 55.1838C23.1551 55.1838 22.0161 56.3228 22.0161 57.7278C22.0161 59.1328 23.1551 60.2718 24.5601 60.2718Z" fill="white"/>
<path d="M55.44 60.2718C56.845 60.2718 57.984 59.1328 57.984 57.7278C57.984 56.3228 56.845 55.1838 55.44 55.1838C54.035 55.1838 52.896 56.3228 52.896 57.7278C52.896 59.1328 54.035 60.2718 55.44 60.2718Z" fill="white"/>
<path d="M24.2959 50.648C24.2998 50.6108 24.2998 50.5732 24.2959 50.536C24.2959 50.2053 24.1978 49.8821 24.0141 49.6071C23.8304 49.3321 23.5693 49.1178 23.2638 48.9913C22.9582 48.8647 22.6221 48.8316 22.2977 48.8961C21.9734 48.9607 21.6755 49.1199 21.4416 49.3537C21.2078 49.5876 21.0485 49.8855 20.984 50.2098C20.9195 50.5342 20.9526 50.8703 21.0792 51.1759C21.2057 51.4814 21.42 51.7425 21.695 51.9262C21.97 52.11 22.2932 52.208 22.6239 52.208H25.1199V50.608L24.2959 50.648Z" fill="#FF617F"/>
<path d="M55.6559 50.648C55.6559 50.608 55.6559 50.576 55.6559 50.536C55.6559 50.2053 55.754 49.8821 55.9377 49.6071C56.1214 49.3321 56.3826 49.1178 56.6881 48.9913C56.9936 48.8647 57.3298 48.8316 57.6541 48.8961C57.9784 48.9607 58.2764 49.1199 58.5102 49.3537C58.744 49.5876 58.9033 49.8855 58.9678 50.2098C59.0323 50.5342 58.9992 50.8703 58.8726 51.1759C58.7461 51.4814 58.5318 51.7425 58.2568 51.9262C57.9819 52.11 57.6586 52.208 57.3279 52.208H54.8159V50.608L55.6559 50.648Z" fill="#FF617F"/>
</g>
<defs>
<clipPath id="clip0_2_466">
<rect width="80" height="80" fill="white"/>
</clipPath>
</defs>
</svg>
