<svg width="80" height="80" viewBox="0 0 80 80" fill="none" xmlns="http://www.w3.org/2000/svg">
<g clip-path="url(#clip0_2_488)">
<path d="M74.376 36.1521H26.536C25.6877 36.1521 25 36.8398 25 37.6881V65.3841C25 66.2324 25.6877 66.9201 26.536 66.9201H74.376C75.2243 66.9201 75.912 66.2324 75.912 65.3841V37.6881C75.912 36.8398 75.2243 36.1521 74.376 36.1521Z" fill="#352C6D"/>
<path d="M75.912 41.2722H25V47.1762H75.912V41.2722Z" fill="#6F66B0"/>
<path d="M48.4959 52.2241H28.1359C27.9415 52.2241 27.7839 52.3817 27.7839 52.5761V53.8001C27.7839 53.9945 27.9415 54.1521 28.1359 54.1521H48.4959C48.6903 54.1521 48.8479 53.9945 48.8479 53.8001V52.5761C48.8479 52.3817 48.6903 52.2241 48.4959 52.2241Z" fill="#6F66B0"/>
<path d="M39.0879 55.3281H28.1359C27.9415 55.3281 27.7839 55.4857 27.7839 55.6801V56.9041C27.7839 57.0985 27.9415 57.2561 28.1359 57.2561H39.0879C39.2823 57.2561 39.4399 57.0985 39.4399 56.9041V55.6801C39.4399 55.4857 39.2823 55.3281 39.0879 55.3281Z" fill="#6F66B0"/>
<path d="M64.3279 58.6241C66.2852 58.6241 67.8719 57.0374 67.8719 55.0801C67.8719 53.1228 66.2852 51.5361 64.3279 51.5361C62.3706 51.5361 60.7839 53.1228 60.7839 55.0801C60.7839 57.0374 62.3706 58.6241 64.3279 58.6241Z" fill="#FE0B53"/>
<path d="M68.68 58.6241C70.6373 58.6241 72.224 57.0374 72.224 55.0801C72.224 53.1228 70.6373 51.5361 68.68 51.5361C66.7227 51.5361 65.136 53.1228 65.136 55.0801C65.136 57.0374 66.7227 58.6241 68.68 58.6241Z" fill="#FF617F"/>
<path d="M50.4526 13.1361L5.09806 28.3556C4.29382 28.6255 3.86063 29.4962 4.13051 30.3004L12.9415 56.5575C13.2114 57.3618 14.0822 57.795 14.8864 57.5251L60.2409 42.3056C61.0452 42.0358 61.4784 41.165 61.2085 40.3608L52.3975 14.1037C52.1276 13.2995 51.2569 12.8663 50.4526 13.1361Z" fill="#FF617F"/>
<path d="M50.9521 13.0481C51.2729 13.0487 51.5854 13.1502 51.8453 13.3383C52.1052 13.5264 52.2993 13.7915 52.4001 14.0961L61.2001 40.3601C61.3294 40.7463 61.3001 41.168 61.1186 41.5325C60.937 41.8971 60.6182 42.1746 60.2321 42.3041L14.8721 57.5041C14.721 57.5615 14.5616 57.594 14.4001 57.6001C14.08 57.6013 13.7676 57.5014 13.5076 57.3147C13.2476 57.1279 13.0532 56.8639 12.9521 56.5601L4.15204 30.2961C4.08691 30.105 4.06032 29.9028 4.0738 29.7013C4.08728 29.4998 4.14057 29.303 4.23058 29.1222C4.3206 28.9414 4.44555 28.7803 4.59822 28.6481C4.75089 28.5159 4.92825 28.4153 5.12004 28.3521L50.4801 13.1521C50.6381 13.1022 50.8024 13.0752 50.9681 13.0721L50.9521 13.0481ZM50.9681 11.8721C50.667 11.8649 50.3669 11.9082 50.0801 12.0001L4.72004 27.2001C4.38005 27.3139 4.06583 27.4936 3.79534 27.7289C3.52485 27.9643 3.3034 28.2506 3.14365 28.5716C2.98391 28.8926 2.889 29.2419 2.86436 29.5996C2.83972 29.9572 2.88582 30.3163 3.00004 30.6561L11.8001 56.9201C11.9793 57.468 12.3274 57.945 12.7945 58.2828C13.2616 58.6205 13.8237 58.8016 14.4001 58.8001C14.6967 58.8004 14.9913 58.7518 15.2721 58.6561L60.6321 43.4561C61.3174 43.2245 61.8832 42.7308 62.2055 42.0832C62.5278 41.4355 62.5805 40.6865 62.3521 40.0001L53.5521 13.7361C53.3695 13.1932 53.0212 12.7213 52.5562 12.3868C52.0911 12.0524 51.5329 11.8724 50.9601 11.8721H50.9681Z" fill="#F8FBFE"/>
<path d="M17.0884 31.3807L10.3383 33.6458C9.82735 33.8173 9.5521 34.3706 9.72358 34.8816L11.0393 38.8027C11.2108 39.3137 11.7641 39.589 12.2751 39.4175L19.0252 37.1524C19.5362 36.9809 19.8115 36.4276 19.64 35.9166L18.3242 31.9955C18.1527 31.4845 17.5995 31.2092 17.0884 31.3807Z" fill="#352C6D"/>
<path d="M21.4438 39.8188L12.7369 42.7406C12.5526 42.8024 12.4534 43.0019 12.5152 43.1863L13.1362 45.0368C13.1981 45.2211 13.3976 45.3204 13.5819 45.2586L22.2888 42.3368C22.4731 42.275 22.5723 42.0755 22.5105 41.8911L21.8895 40.0406C21.8277 39.8563 21.6281 39.757 21.4438 39.8188Z" fill="#FE0B53"/>
<path d="M31.9794 36.2907L23.2726 39.2124C23.0883 39.2742 22.989 39.4738 23.0508 39.6581L23.6718 41.5087C23.7337 41.693 23.9332 41.7922 24.1175 41.7304L32.8244 38.8087C33.0087 38.7468 33.1079 38.5473 33.0461 38.363L32.4251 36.5124C32.3633 36.3281 32.1637 36.2288 31.9794 36.2907Z" fill="#FE0B53"/>
<path d="M42.5226 32.7519L33.8158 35.6737C33.6315 35.7355 33.5322 35.9351 33.5941 36.1194L34.2151 37.9699C34.2769 38.1542 34.4764 38.2535 34.6607 38.1917L43.3676 35.2699C43.5519 35.2081 43.6512 35.0086 43.5893 34.8243L42.9683 32.9737C42.9065 32.7894 42.707 32.6901 42.5226 32.7519Z" fill="#FE0B53"/>
<path d="M53.0583 29.2158L44.3514 32.1375C44.1671 32.1994 44.0679 32.3989 44.1297 32.5832L44.7507 34.4338C44.8125 34.6181 45.0121 34.7174 45.1964 34.6555L53.9033 31.7338C54.0876 31.672 54.1868 31.4724 54.125 31.2881L53.504 29.4375C53.4421 29.2532 53.2426 29.154 53.0583 29.2158Z" fill="#FE0B53"/>
<path d="M20.5232 45.8935L14.3343 47.9703C14.15 48.0321 14.0507 48.2317 14.1126 48.416L14.4409 49.3944C14.5028 49.5787 14.7023 49.6779 14.8866 49.6161L21.0754 47.5393C21.2598 47.4775 21.359 47.2779 21.2972 47.0936L20.9689 46.1153C20.907 45.931 20.7075 45.8317 20.5232 45.8935Z" fill="#FE0B53"/>
<path d="M38.9339 44.294L15.7105 52.087C15.5262 52.1488 15.427 52.3484 15.4888 52.5327L15.8171 53.5111C15.879 53.6954 16.0785 53.7946 16.2628 53.7328L39.4862 45.9398C39.6705 45.878 39.7697 45.6784 39.7079 45.4941L39.3796 44.5158C39.3177 44.3315 39.1182 44.2322 38.9339 44.294Z" fill="#FE0B53"/>
<path d="M30.4526 42.5639L24.2637 44.6407C24.0794 44.7025 23.9802 44.9021 24.042 45.0864L24.3703 46.0648C24.4322 46.2491 24.6317 46.3484 24.816 46.2865L31.0048 44.2097C31.1892 44.1479 31.2884 43.9484 31.2266 43.7641L30.8983 42.7857C30.8364 42.6014 30.6369 42.5021 30.4526 42.5639Z" fill="#FE0B53"/>
</g>
<defs>
<clipPath id="clip0_2_488">
<rect width="80" height="80" fill="white"/>
</clipPath>
</defs>
</svg>
