<svg width="17" height="17" viewBox="0 0 17 17" fill="none" xmlns="http://www.w3.org/2000/svg">
<g clip-path="url(#clip0_2_92)">
<path d="M7.77003 6.70298C7.77003 6.80907 7.81217 6.91081 7.88718 6.98582C7.9622 7.06084 8.06394 7.10298 8.17003 7.10298C8.27611 7.10298 8.37786 7.06084 8.45287 6.98582C8.52788 6.91081 8.57003 6.80907 8.57003 6.70298C8.57003 6.59689 8.52788 6.49515 8.45287 6.42014C8.37786 6.34512 8.27611 6.30298 8.17003 6.30298C8.06394 6.30298 7.9622 6.34512 7.88718 6.42014C7.81217 6.49515 7.77003 6.59689 7.77003 6.70298ZM7.77003 12.437V8.76998H7.10303V7.96998H8.57003V12.437H7.77003Z" fill="#150D2C" fill-opacity="0.88"/>
<path fill-rule="evenodd" clip-rule="evenodd" d="M14.1699 9.37C14.1699 10.1579 14.0147 10.9381 13.7132 11.6661C13.4117 12.394 12.9697 13.0555 12.4126 13.6126C11.8554 14.1698 11.194 14.6117 10.466 14.9133C9.73807 15.2148 8.95785 15.37 8.16992 15.37C7.38199 15.37 6.60177 15.2148 5.87382 14.9133C5.14587 14.6117 4.48443 14.1698 3.92728 13.6126C3.37013 13.0555 2.92817 12.394 2.62664 11.6661C2.32512 10.9381 2.16992 10.1579 2.16992 9.37C2.16992 7.7787 2.80206 6.25257 3.92728 5.12735C5.0525 4.00214 6.57862 3.37 8.16992 3.37C9.76122 3.37 11.2873 4.00214 12.4126 5.12735C13.5378 6.25257 14.1699 7.7787 14.1699 9.37ZM13.3699 9.37C13.3699 10.0529 13.2354 10.7291 12.9741 11.3599C12.7128 11.9908 12.3297 12.5641 11.8469 13.047C11.364 13.5298 10.7908 13.9128 10.1599 14.1742C9.52898 14.4355 8.8528 14.57 8.16992 14.57C7.48705 14.57 6.81086 14.4355 6.17997 14.1742C5.54907 13.9128 4.97583 13.5298 4.49297 13.047C4.0101 12.5641 3.62707 11.9908 3.36575 11.3599C3.10442 10.7291 2.96992 10.0529 2.96992 9.37C2.96992 7.99087 3.51778 6.66823 4.49297 5.69304C5.46816 4.71785 6.7908 4.17 8.16992 4.17C9.54905 4.17 10.8717 4.71785 11.8469 5.69304C12.8221 6.66823 13.3699 7.99087 13.3699 9.37Z" fill="#150D2C" fill-opacity="0.88"/>
</g>
<defs>
<clipPath id="clip0_2_92">
<rect width="16" height="16" fill="white" transform="translate(0.169922 0.869995)"/>
</clipPath>
</defs>
</svg>
