<svg width="17" height="17" viewBox="0 0 17 17" fill="none" xmlns="http://www.w3.org/2000/svg">
<g clip-path="url(#clip0_2_118)">
<path d="M8.40015 6.70298C8.40015 6.80907 8.4423 6.91081 8.51731 6.98582C8.59233 7.06084 8.69407 7.10298 8.80015 7.10298C8.90624 7.10298 9.00798 7.06084 9.083 6.98582C9.15801 6.91081 9.20015 6.80907 9.20015 6.70298C9.20015 6.59689 9.15801 6.49515 9.083 6.42014C9.00798 6.34512 8.90624 6.30298 8.80015 6.30298C8.69407 6.30298 8.59233 6.34512 8.51731 6.42014C8.4423 6.49515 8.40015 6.59689 8.40015 6.70298ZM8.40015 12.437V8.76998H7.73315V7.96998H9.20015V12.437H8.40015Z" fill="#150D2C" fill-opacity="0.88"/>
<path fill-rule="evenodd" clip-rule="evenodd" d="M14.8 9.37C14.8 10.1579 14.6449 10.9381 14.3433 11.6661C14.0418 12.394 13.5998 13.0555 13.0427 13.6126C12.4855 14.1698 11.8241 14.6117 11.0961 14.9133C10.3682 15.2148 9.58798 15.37 8.80005 15.37C8.01212 15.37 7.2319 15.2148 6.50395 14.9133C5.77599 14.6117 5.11456 14.1698 4.55741 13.6126C4.00026 13.0555 3.5583 12.394 3.25677 11.6661C2.95524 10.9381 2.80005 10.1579 2.80005 9.37C2.80005 7.7787 3.43219 6.25257 4.55741 5.12735C5.68263 4.00214 7.20875 3.37 8.80005 3.37C10.3913 3.37 11.9175 4.00214 13.0427 5.12735C14.1679 6.25257 14.8 7.7787 14.8 9.37ZM14 9.37C14 10.0529 13.8655 10.7291 13.6042 11.3599C13.3429 11.9908 12.9599 12.5641 12.477 13.047C11.9941 13.5298 11.4209 13.9128 10.79 14.1742C10.1591 14.4355 9.48292 14.57 8.80005 14.57C8.11718 14.57 7.44099 14.4355 6.81009 14.1742C6.1792 13.9128 5.60596 13.5298 5.12309 13.047C4.64023 12.5641 4.2572 11.9908 3.99588 11.3599C3.73455 10.7291 3.60005 10.0529 3.60005 9.37C3.60005 7.99087 4.1479 6.66823 5.12309 5.69304C6.09828 4.71785 7.42092 4.17 8.80005 4.17C10.1792 4.17 11.5018 4.71785 12.477 5.69304C13.4522 6.66823 14 7.99087 14 9.37Z" fill="#150D2C" fill-opacity="0.88"/>
</g>
<defs>
<clipPath id="clip0_2_118">
<rect width="16" height="16" fill="white" transform="translate(0.800049 0.869995)"/>
</clipPath>
</defs>
</svg>
