<svg width="17" height="17" viewBox="0 0 17 17" fill="none" xmlns="http://www.w3.org/2000/svg">
<g clip-path="url(#clip0_2_144)">
<path d="M7.99 6.70298C7.99 6.80907 8.03214 6.91081 8.10716 6.98582C8.18217 7.06084 8.28391 7.10298 8.39 7.10298C8.49608 7.10298 8.59783 7.06084 8.67284 6.98582C8.74786 6.91081 8.79 6.80907 8.79 6.70298C8.79 6.59689 8.74786 6.49515 8.67284 6.42014C8.59783 6.34512 8.49608 6.30298 8.39 6.30298C8.28391 6.30298 8.18217 6.34512 8.10716 6.42014C8.03214 6.49515 7.99 6.59689 7.99 6.70298ZM7.99 12.437V8.76998H7.323V7.96998H8.79V12.437H7.99Z" fill="#150D2C" fill-opacity="0.88"/>
<path fill-rule="evenodd" clip-rule="evenodd" d="M14.3899 9.37C14.3899 10.1579 14.2347 10.9381 13.9332 11.6661C13.6316 12.394 13.1897 13.0555 12.6325 13.6126C12.0754 14.1698 11.4139 14.6117 10.686 14.9133C9.95804 15.2148 9.17782 15.37 8.38989 15.37C7.60196 15.37 6.82175 15.2148 6.09379 14.9133C5.36584 14.6117 4.7044 14.1698 4.14725 13.6126C3.5901 13.0555 3.14814 12.394 2.84662 11.6661C2.54509 10.9381 2.38989 10.1579 2.38989 9.37C2.38989 7.7787 3.02203 6.25257 4.14725 5.12735C5.27247 4.00214 6.79859 3.37 8.38989 3.37C9.98119 3.37 11.5073 4.00214 12.6325 5.12735C13.7578 6.25257 14.3899 7.7787 14.3899 9.37ZM13.5899 9.37C13.5899 10.0529 13.4554 10.7291 13.1941 11.3599C12.9327 11.9908 12.5497 12.5641 12.0668 13.047C11.584 13.5298 11.0107 13.9128 10.3798 14.1742C9.74895 14.4355 9.07277 14.57 8.38989 14.57C7.70702 14.57 7.03083 14.4355 6.39994 14.1742C5.76905 13.9128 5.1958 13.5298 4.71294 13.047C4.23007 12.5641 3.84704 11.9908 3.58572 11.3599C3.32439 10.7291 3.18989 10.0529 3.18989 9.37C3.18989 7.99087 3.73775 6.66823 4.71294 5.69304C5.68813 4.71785 7.01077 4.17 8.38989 4.17C9.76902 4.17 11.0917 4.71785 12.0668 5.69304C13.042 6.66823 13.5899 7.99087 13.5899 9.37Z" fill="#150D2C" fill-opacity="0.88"/>
</g>
<defs>
<clipPath id="clip0_2_144">
<rect width="16" height="16" fill="white" transform="translate(0.389893 0.869995)"/>
</clipPath>
</defs>
</svg>
