<svg width="17" height="17" viewBox="0 0 17 17" fill="none" xmlns="http://www.w3.org/2000/svg">
<g clip-path="url(#clip0_2_171)">
<path d="M7.88013 6.77299C7.88013 6.87907 7.92228 6.98081 7.99729 7.05583C8.07231 7.13084 8.17405 7.17299 8.28013 7.17299C8.38622 7.17299 8.48796 7.13084 8.56298 7.05583C8.63799 6.98081 8.68013 6.87907 8.68013 6.77299C8.68013 6.6669 8.63799 6.56516 8.56298 6.49014C8.48796 6.41513 8.38622 6.37299 8.28013 6.37299C8.17405 6.37299 8.07231 6.41513 7.99729 6.49014C7.92228 6.56516 7.88013 6.6669 7.88013 6.77299ZM7.88013 12.507V8.83999H7.21313V8.03999H8.68013V12.507H7.88013Z" fill="#150D2C" fill-opacity="0.88"/>
<path fill-rule="evenodd" clip-rule="evenodd" d="M14.28 9.44C14.28 10.2279 14.1248 11.0081 13.8233 11.7361C13.5218 12.4641 13.0798 13.1255 12.5227 13.6826C11.9655 14.2398 11.3041 14.6818 10.5761 14.9833C9.84818 15.2848 9.06796 15.44 8.28003 15.44C7.4921 15.44 6.71188 15.2848 5.98393 14.9833C5.25598 14.6818 4.59454 14.2398 4.03739 13.6826C3.48024 13.1255 3.03828 12.4641 2.73675 11.7361C2.43522 11.0081 2.28003 10.2279 2.28003 9.44C2.28003 7.8487 2.91217 6.32258 4.03739 5.19736C5.16261 4.07214 6.68873 3.44 8.28003 3.44C9.87133 3.44 11.3975 4.07214 12.5227 5.19736C13.6479 6.32258 14.28 7.8487 14.28 9.44ZM13.48 9.44C13.48 10.1229 13.3455 10.7991 13.0842 11.43C12.8229 12.0608 12.4398 12.6341 11.957 13.117C11.4741 13.5998 10.9009 13.9829 10.27 14.2442C9.63909 14.5055 8.9629 14.64 8.28003 14.64C7.59716 14.64 6.92097 14.5055 6.29008 14.2442C5.65918 13.9829 5.08594 13.5998 4.60307 13.117C4.12021 12.6341 3.73718 12.0608 3.47586 11.43C3.21453 10.7991 3.08003 10.1229 3.08003 9.44C3.08003 8.06088 3.62788 6.73824 4.60307 5.76305C5.57826 4.78786 6.9009 4.24 8.28003 4.24C9.65915 4.24 10.9818 4.78786 11.957 5.76305C12.9322 6.73824 13.48 8.06088 13.48 9.44Z" fill="#150D2C" fill-opacity="0.88"/>
</g>
<defs>
<clipPath id="clip0_2_171">
<rect width="16" height="16" fill="white" transform="translate(0.280029 0.940002)"/>
</clipPath>
</defs>
</svg>
